#!OML:ASF H:\BreakDance\Project 1\Capture day 1\Session 1\Male.ASF
:FULLY-SPECIFIED
:DEGREES
540
root 16.8422 18.2358 -1.31358 -3.66612 -54.4266 -1.81788
lowerback 9.0036 0.120369 3.05978
upperback 3.30277 0.337692 -1.20524
thorax -1.59381 0.163667 -3.0026
lowerneck -3.15401 -7.3496 -4.07066
upperneck -14.6575 -9.3322 8.06677
head -3.64996 -4.84895 3.59245
rclavicle -3.34704e-014 6.75868e-015
rhumerus -56.9968 18.8299 -77.7669
rradius 49.1731
rwrist 2.60852
rhand -46.0984 -16.9852
rfingers 7.12502
rthumb -18.8403 -46.0928
lclavicle -3.34704e-014 6.75868e-015
lhumerus 0.263565 -23.9749 53.6002
lradius 59.5839
lwrist -6.45467
lhand -47.8816 -52.4357
lfingers 7.12502
lthumb -20.5546 -23.5039
rfemur -15.3304 -5.29596 19.2471
rtibia 33.7983
rfoot 17.5819 5.96784
rtoes 1.0064
lfemur -86.317 -1.66818 -11.55
ltibia 109.863
lfoot -14.2746 -5.00514
ltoes -28.6098
541
root 16.8536 18.4717 -1.26642 -2.66606 -54.5788 -2.73501
lowerback 8.90174 0.0442234 3.41458
upperback 3.35863 0.266817 -1.01069
thorax -1.48334 0.131776 -2.99277
lowerneck -3.25112 -7.36726 -4.28506
upperneck -14.0379 -9.34298 8.27122
head -3.39152 -4.84322 3.65975
rclavicle -4.40308e-014 1.15295e-014
rhumerus -58.079 18.9551 -78.0525
rradius 48.6274
rwrist 2.39725
rhand -45.6592 -16.6336
rfingers 7.12502
rthumb -18.4179 -45.7816
lclavicle -4.40308e-014 1.15295e-014
lhumerus 1.78035 -23.5645 52.9545
lradius 60.0754
lwrist -6.94285
lhand -47.7047 -51.8733
lfingers 7.12502
lthumb -20.3847 -22.9232
rfemur -16.6791 -6.88894 19.5226
rtibia 35.6532
rfoot 18.6872 7.83487
rtoes -1.64137
lfemur -85.1787 -1.44926 -10.8649
ltibia 108.785
lfoot -13.7568 -5.58152
ltoes -28.5698
542
root 16.8706 18.6953 -1.22181 -1.79655 -54.9059 -3.48233
lowerback 8.8031 -0.0155911 3.63276
upperback 3.43056 0.203693 -0.826106
thorax -1.35859 0.103512 -2.91716
lowerneck -3.27259 -7.30509 -4.39322
upperneck -13.4479 -9.25888 8.37373
head -3.17648 -4.79262 3.68149
rclavicle -2.5842e-014 -4.77083e-015
rhumerus -58.945 19.02 -78.2404
rradius 47.9792
rwrist 2.31597
rhand -45.1464 -16.1219
rfingers 7.12502
rthumb -17.9245 -45.3159
lclavicle -2.5842e-014 -4.77083e-015
lhumerus 3.16577 -23.1133 52.2769
lradius 60.6304
lwrist -7.28007
lhand -47.5435 -51.2612
lfingers 7.12502
lthumb -20.2297 -22.2946
rfemur -18.4904 -8.26386 19.7323
rtibia 38.4943
rfoot 19.1254 9.85422
rtoes -3.91576
lfemur -83.7537 -1.11079 -10.2163
ltibia 107.515
lfoot -13.2324 -6.11384
ltoes -28.7322
543
root 16.89 18.9056 -1.18015 -1.16409 -55.3954 -3.98986
lowerback 8.7335 -0.0573403 3.65028
upperback 3.52792 0.146365 -0.666244
thorax -1.22431 0.0771862 -2.75498
lowerneck -3.1929 -7.15631 -4.37517
upperneck -12.8769 -9.06929 8.38708
head -3.00599 -4.69326 3.65952
rclavicle -3.57812e-015 -8.34896e-015
rhumerus -59.6054 19.0144 -78.335
rradius 47.221
rwrist 2.3482
rhand -44.597 -15.5409
rfingers 7.12502
rthumb -17.3958 -44.7825
lclavicle -3.57812e-015 -8.34896e-015
lhumerus 4.3997 -22.6627 51.5368
lradius 61.2563
lwrist -7.42313
lhand -47.4191 -50.5957
lfingers 7.12502
lthumb -20.1102 -21.6165
rfemur -20.6486 -9.25156 19.8108
rtibia 42.1783
rfoot 19.2481 11.6377
rtoes -5.06153
lfemur -81.9941 -0.692246 -9.65541
ltibia 106.06
lfoot -12.6906 -6.55692
ltoes -28.9899
544
root 16.9098 19.1025 -1.14081 -0.798032 -56.0092 -4.25771
lowerback 8.70628 -0.0927247 3.49579
upperback 3.64749 0.0828308 -0.549921
thorax -1.09141 0.0463689 -2.54091
lowerneck -2.99171 -6.9479 -4.34692
upperneck -12.2953 -8.80364 8.39583
head -2.86148 -4.55709 3.6421
rclavicle -7.1314e-014 1.47101e-014
rhumerus -60.0882 18.9222 -78.3612
rradius 46.3543
rwrist 2.45845
rhand -44.0435 -15.0145
rfingers 7.12502
rthumb -16.8631 -44.3024
lclavicle -7.1314e-014 1.47101e-014
lhumerus 5.49957 -22.2368 50.7203
lradius 61.9112
lwrist -7.40154
lhand -47.3335 -49.9212
lfingers 7.12502
lthumb -20.0278 -20.9334
rfemur -23.0628 -9.84756 19.7357
rtibia 46.52
rfoot 19.2443 13.0616
rtoes -5.42589
lfemur -79.8945 -0.248948 -9.19263
ltibia 104.433
lfoot -12.1213 -6.88011
ltoes -29.2766
545
root 16.9292 19.2869 -1.10241 -0.693251 -56.6868 -4.30258
lowerback 8.72846 -0.1316 3.24986
upperback 3.76524 0.00770795 -0.502647
thorax -0.988054 0.00823583 -2.34623
lowerneck -2.64103 -6.71706 -4.35402
upperneck -11.6809 -8.51109 8.42167
head -2.73398 -4.4073 3.64415
rclavicle 1.75924e-014 1.98785e-015
rhumerus -60.461 18.6877 -78.3426
rradius 45.3889
rwrist 2.61336
rhand -43.5026 -14.6404
rfingers 7.12502
rthumb -16.3424 -43.9718
lclavicle 1.75924e-014 1.98785e-015
lhumerus 6.48736 -21.8943 49.82
lradius 62.5619
lwrist -7.27647
lhand -47.2855 -49.2631
lfingers 7.12502
lthumb -19.9817 -20.2704
rfemur -25.6705 -10.147 19.5004
rtibia 51.3232
rfoot 19.1359 14.1915
rtoes -6.06308
lfemur -77.478 0.146956 -8.83427
ltibia 102.631
lfoot -11.5098 -7.05884
ltoes -29.5579
546
root 16.9479 19.46 -1.06313 -0.827003 -57.3781 -4.14573
lowerback 8.79158 -0.204144 2.93302
upperback 3.89734 -0.117627 -0.481582
thorax -0.894743 -0.0563164 -2.13427
lowerneck -2.30882 -6.43265 -4.37239
upperneck -10.9422 -8.15489 8.38279
head -2.56909 -4.2208 3.62035
rclavicle -7.65321e-015 0
rhumerus -60.6817 18.4236 -78.2268
rradius 44.3364
rwrist 2.75994
rhand -43.0068 -14.4246
rfingers 7.12502
rthumb -15.8649 -43.7946
lclavicle -7.65321e-015 0
lhumerus 7.39148 -21.5121 48.9609
lradius 63.1193
lwrist -7.16613
lhand -47.2841 -48.6534
lfingers 7.12502
lthumb -19.9804 -19.6606
rfemur -28.4283 -10.2662 19.1097
rtibia 56.3999
rfoot 18.8783 15.1729
rtoes -6.5503
lfemur -74.7846 0.442327 -8.58632
ltibia 100.647
lfoot -10.8429 -7.09343
ltoes -29.7989
547
root 16.966 19.6227 -1.02144 -1.15189 -58.0583 -3.82479
lowerback 8.89848 -0.289439 2.63048
upperback 3.99704 -0.257483 -0.507108
thorax -0.858419 -0.129192 -1.97713
lowerneck -1.8599 -6.13082 -4.4222
upperneck -10.1443 -7.78261 8.3087
head -2.40848 -4.02431 3.59426
rclavicle 4.25399e-014 -2.10712e-014
rhumerus -60.8855 18.0433 -78.0399
rradius 43.2297
rwrist 2.88315
rhand -42.5553 -14.359
rfingers 7.12502
rthumb -15.4301 -43.7631
lclavicle 4.25399e-014 -2.10712e-014
lhumerus 8.26159 -21.226 48.1132
lradius 63.5696
lwrist -7.06902
lhand -47.3311 -48.1101
lfingers 7.12502
lthumb -20.0255 -19.1221
rfemur -31.3143 -10.3079 18.5898
rtibia 61.5844
rfoot 18.4049 16.1496
rtoes -7.16621
lfemur -71.8659 0.623892 -8.44389
ltibia 98.4755
lfoot -10.1149 -6.99993
ltoes -29.9971
548
root 16.9835 19.7753 -0.976601 -1.61678 -58.7297 -3.37915
lowerback 9.03626 -0.379971 2.36752
upperback 4.07067 -0.400611 -0.563458
thorax -0.865055 -0.203983 -1.87341
lowerneck -1.38058 -5.8105 -4.44378
upperneck -9.23512 -7.39453 8.16447
head -2.22257 -3.81785 3.53664
rclavicle -9.49197e-014 1.90833e-014
rhumerus -61.0733 17.5549 -77.7565
rradius 42.1059
rwrist 2.94575
rhand -42.0793 -14.4564
rfingers 7.12502
rthumb -14.9716 -43.8952
lclavicle -9.49197e-014 1.90833e-014
lhumerus 9.14696 -21.0294 47.2616
lradius 63.9092
lwrist -6.98508
lhand -47.4272 -47.6332
lfingers 7.12502
lthumb -20.1179 -18.6549
rfemur -34.3223 -10.3339 17.9771
rtibia 66.7424
rfoot 17.7179 17.1644
rtoes -7.88765
lfemur -68.7633 0.710527 -8.39382
ltibia 96.1145
lfoot -9.3314 -6.8053
ltoes -30.1175
549
root 17.0003 19.9176 -0.92843 -2.15127 -59.4242 -2.86391
lowerback 9.17362 -0.471302 2.13616
upperback 4.13159 -0.542507 -0.616266
thorax -0.883577 -0.278134 -1.78347
lowerneck -0.927574 -5.4518 -4.42241
upperneck -8.20391 -6.9631 7.93801
head -2.00034 -3.58744 3.43854
rclavicle 4.73108e-014 -1.15295e-014
rhumerus -61.2275 17.0174 -77.3474
rradius 40.9985
rwrist 2.91656
rhand -41.4902 -14.6801
rfingers 7.12502
rthumb -14.404 -44.1603
lclavicle 4.73108e-014 -1.15295e-014
lhumerus 10.0617 -20.863 46.4427
lradius 64.1132
lwrist -6.9393
lhand -47.5665 -47.2342
lfingers 7.12502
lthumb -20.2519 -18.27
rfemur -37.4649 -10.3585 17.326
rtibia 71.7721
rfoot 16.7977 18.1845
rtoes -8.86078
lfemur -65.5142 0.755244 -8.40282
ltibia 93.5713
lfoot -8.50931 -6.55785
ltoes -30.1287
